HIERARCHY
ROOT Hips
{
  OFFSET -1.0702 102.605 67.2322
  CHANNELS 6 Xposition Yposition Zposition Zrotation Xrotation Yrotation
  JOINT RightUpLeg
  {
    OFFSET -8.9458 -8.66707 0.101652
    CHANNELS 3 Zrotation Xrotation Yrotation
    JOINT RightLeg
    {
      OFFSET 0 -44.4227 1.3727
      CHANNELS 3 Zrotation Xrotation Yrotation
      JOINT RightFoot
      {
        OFFSET 0.253549 -42.0924 -1.46059
        CHANNELS 3 Zrotation Xrotation Yrotation
        JOINT RightToes
        {
          OFFSET 0.04 -4.41509 8.4991
          CHANNELS 3 Zrotation Xrotation Yrotation
          End Site
          {
            OFFSET -0.08 -0.137448 9.77979
          }
        }
      }
    }
  }
  JOINT Spine
  {
    OFFSET 0 11.8905 0
    CHANNELS 3 Zrotation Xrotation Yrotation
    JOINT Spine1
    {
      OFFSET 0 25.6574 0.127663
      CHANNELS 3 Zrotation Xrotation Yrotation
      JOINT HEad
      {
        OFFSET 0 8.73416 0.011341
        CHANNELS 3 Zrotation Xrotation Yrotation
        End Site
        {
          OFFSET -0.29 12.7742 2.51395
        }
      }
      JOINT LeftShoulder1
      {
        OFFSET 8.99 -0.362252 -0.22
        CHANNELS 3 Zrotation Xrotation Yrotation
        JOINT LeftArm
        {
          OFFSET 10.2827 -0.00337999 0.322123
          CHANNELS 3 Zrotation Xrotation Yrotation
          JOINT LeftForeArm
          {
            OFFSET 26.2597 0.099144 -1.42434
            CHANNELS 3 Zrotation Xrotation Yrotation
            JOINT LeftHand
            {
              OFFSET 22.0902 0.085362 1.02216
              CHANNELS 3 Zrotation Xrotation Yrotation
              End Site
              {
                OFFSET 13.419 -0.6 1.50291
              }
            }
          }
        }
      }
      JOINT RightShoulder
      {
        OFFSET -8.99 -0.362252 -0.22
        CHANNELS 3 Zrotation Xrotation Yrotation
        JOINT RightArm
        {
          OFFSET -10.2827 -0.00338 0.322123
          CHANNELS 3 Zrotation Xrotation Yrotation
          JOINT RightForeArm
          {
            OFFSET -26.364 0.099144 -1.42434
            CHANNELS 3 Zrotation Xrotation Yrotation
            JOINT RightHand
            {
              OFFSET -22.0324 0.085362 1.02216
              CHANNELS 3 Zrotation Xrotation Yrotation
              End Site
              {
                OFFSET -13.3284 -0.6 1.50291
              }
            }
          }
        }
      }
    }
  }
  JOINT LeftUpLeg
  {
    OFFSET 8.9458 -8.66707 0.101652
    CHANNELS 3 Zrotation Xrotation Yrotation
    JOINT LeftLeg
    {
      OFFSET 0 -44.4227 1.3727
      CHANNELS 3 Zrotation Xrotation Yrotation
      JOINT LeftFoot
      {
        OFFSET -0.253549 -42.0924 -1.46059
        CHANNELS 3 Zrotation Xrotation Yrotation
        JOINT LeftToes
        {
          OFFSET -0.04 -4.41509 8.4991
          CHANNELS 3 Zrotation Xrotation Yrotation
          End Site
          {
            OFFSET 0.08 -0.047448 9.77979
          }
        }
      }
    }
  }
}
MOTION
Frames:	18
Frame Time:	0.0333333
-4.97583 98.1895 83.0848 3.75362 1.50994 106.978 -19.2325 -0.627698 -19.1809 0.982826 35.8276 8.7072 17.8722 -15.4237 0.572248 -7.95139e-016 -3.08116e-015 7.95139e-016 5.42285 6.54744 3.60458 -8.36442 12.7561 6.064 -7.9481 -16.558 52.3772 -21.3083 1.85513 -3.18638 -42.669 24.722 -6.48059 2.00128 3.80406 -31.9518 16.6441 -0.574848 1.42517 24.0951 2.44292 4.53685 37.2903 10.1859 12.9635 7.00384 4.20563 115.304 -1.37587 -0.0518141 -4.6814 14.2449 -14.078 4.72261 0.825867 39.1622 2.18653 -13.0705 -7.93016 0.440325 1.98626e-031 1.78906e-015 -6.36111e-015 
-5.70939 95.0842 83.8452 4.24841 0.837254 105.854 -20.2452 -3.31803 -21.1803 1.51094 42.4827 11.5675 15.9057 -22.7263 1.55064 0 8.44835e-016 -0 7.10675 6.79797 3.24695 -9.39029 14.4785 6.11294 -8.44676 -19.5352 53.7791 -23.0965 1.89838 -2.95061 -40.1226 22.2699 -8.7791 2.61371 4.60296 -32.4815 18.4077 -0.578949 1.7904 24.5246 2.42019 4.35699 32.0913 5.38537 21.5359 9.31611 4.19575 108.858 -7.01804 0.0438952 -6.97631 16.0659 -15.8106 5.92023 0.976192 44.041 2.73093 -14.4343 -15.4236 -0.446525 5.96354e-016 9.93923e-017 -6.36111e-015 
-5.83627 94.2375 83.9524 4.66855 0.572347 104.421 -20.6295 -4.28005 -21.3748 1.69318 44.4328 12.5192 14.9748 -23.8561 1.60655 -1.59028e-015 2.98177e-016 7.95139e-016 6.97507 6.1465 3.3299 -8.21495 16.1555 5.88196 -9.44461 -20.9333 55.8899 -24.3205 1.94091 -2.84322 -40.208 22.3605 -9.46775 2.42015 4.72385 -30.0578 22.55 -0.604074 2.34134 25.8101 2.58979 4.58269 31.134 4.84845 26.2148 6.13549 2.18786 103.129 -14.8467 0.573098 -10.3794 17.3084 -15.5748 7.2735 0.82531 45.6592 1.57422 -15.7681 -17.1567 -0.731463 -5.96354e-016 -3.97569e-016 3.18055e-015 
-5.14494 96.318 83.2863 4.99741 1.60004 103.657 -20.7399 -1.76606 -19.7739 1.48327 39.645 11.9216 16.0986 -19.8944 1.14773 -1.59028e-015 -6.60959e-015 3.97569e-016 5.81321 4.99889 3.82615 -7.34068 16.9374 6.10107 -10.5423 -19.1874 56.5396 -23.4359 1.88837 -2.84624 -42.2037 28.2179 -8.91252 0.267375 1.60515 -25.6024 23.1764 -0.593375 2.48269 27.2769 2.81681 4.91745 36.3282 7.3962 21.8174 4.43549 1.72822 103.226 -19.7185 0.975406 -11.4907 16.476 -12.6283 9.05524 0.560638 42.0733 0.190941 -16.0099 -12.8835 -0.149477 -0 -7.95139e-016 -0 
-4.22882 100.036 81.9849 4.9233 2.73303 103.631 -20.6696 1.72513 -17.9959 1.14976 31.5073 10.3747 18.8698 -9.69643 -0.354402 -7.95139e-016 -1.59028e-015 -7.95139e-016 5.62963 3.91286 3.78664 -7.91992 16.0364 6.22463 -11.0456 -15.6873 56.8051 -22.7689 1.83282 -2.79372 -44.7203 32.4313 -5.11333 -0.411088 0.450565 -23.5748 17.6537 -0.564009 1.73403 28.7385 3.01121 5.1296 42.8477 11.5066 12.5678 7.89758 3.33124 107.163 -19.0813 0.76957 -10.4151 14.9899 -8.90058 11.0224 0.0902489 35.2402 -2.90105 -16.1965 -3.25919 1.18445 -1.59028e-015 -7.95139e-016 6.36111e-015 
-3.55016 103.13 80.5133 4.55112 2.90796 103.835 -19.9683 3.23736 -16.9729 0.546945 25.7431 6.31486 18.7071 1.16288 -2.05006 7.95139e-016 2.08724e-015 -2.38542e-015 5.88235 2.97375 3.24161 -7.88182 14.178 5.63344 -10.6456 -13.0348 57.6359 -23.1224 1.81793 -2.67215 -47.6004 28.7801 1.56313 1.04395 3.13244 -25.0264 12.4636 -0.455405 1.20453 29.2664 3.10436 5.26635 47.3422 16.2116 4.05938 8.44478 4.17681 110.917 -13.2461 0.271012 -8.25097 14.36 -6.35041 11.9964 -0.469412 29.2431 -6.89017 -16.5716 5.06366 2.35438 0 0 -6.36111e-015 
-3.23209 104.466 79.3449 4.3317 3.0243 104.182 -19.3331 3.24078 -16.0014 0.00828423 24.5107 2.08238 13.7833 4.6475 -1.91418 5.46658e-016 -1.82944e-015 -0 5.15112 2.04758 2.94956 -7.32278 13.9018 5.12727 -9.58863 -12.8114 57.6386 -22.1133 1.71714 -2.52525 -49.1779 25.1694 5.24689 0.669537 2.21405 -27.1409 11.263 -0.37412 1.61982 28.2756 3.00939 5.23793 50.0075 18.8972 -1.17632 3.87428 2.46193 114.428 -6.01934 -0.0617584 -4.92642 13.7901 -5.43774 11.4463 -0.452715 26.5873 -6.78797 -13.9205 6.4031 2.12368 -3.18055e-015 5.56597e-015 3.18055e-015 
-3.33322 104.21 78.5005 4.41753 3.7182 104.509 -19.577 2.72941 -14.6879 0.0412802 26.8767 2.09107 11.4233 2.15717 -1.34307 -7.95139e-016 -3.42904e-015 1.59028e-015 3.78336 1.96054 3.04109 -7.51205 14.8435 5.1616 -8.77397 -13.8645 56.5821 -20.0353 1.572 -2.4223 -48.9684 25.3696 4.78481 -0.883238 -0.47345 -28.3792 12.0615 -0.354484 2.08735 26.8652 2.82926 5.0566 50.1613 18.7618 -2.53206 1.18485 1.17077 117.328 -2.94085 -0.0781297 -3.49032 13.0712 -5.44275 10.4728 0.022473 26.0896 -3.03967 -11.0032 5.80025 1.61462 2.64834e-031 4.77083e-015 -3.18055e-015 
-3.74335 102.35 77.7253 4.71009 4.52336 104.48 -20.5755 1.39169 -13.4792 0.311995 32.0138 4.0885 14.8115 -3.25888 -1.06192 -3.97569e-016 1.81391e-015 -0 2.63961 3.60371 3.30684 -7.99421 14.1538 5.3509 -8.65978 -14.2548 55.3626 -19.1612 1.5497 -2.52293 -46.5664 25.8212 3.4805 -1.00072 -0.606856 -29.9136 13.4191 -0.332958 2.63339 26.2116 2.75334 4.98946 47.767 16.6121 -1.62155 2.95063 2.27793 118.543 -3.82682 -0.0687866 -4.33192 13.0312 -5.86566 10.4605 0.220092 27.6473 -1.57852 -12.6642 3.95305 1.66286 1.59028e-015 -3.97569e-015 -3.18055e-015 
-4.35258 99.0001 76.8989 4.92235 4.96926 105.182 -21.7647 -0.0816207 -13.4676 0.185764 37.9516 3.41522 18 -11.657 0.0081513 -3.97569e-016 4.96962e-016 1.59028e-015 1.73585 5.56742 3.24496 -7.66916 13.0975 5.01747 -8.77304 -15.4858 54.2085 -19.8258 1.62087 -2.65067 -41.4715 26.1736 0.941465 -0.9176 -0.461011 -31.338 13.9468 -0.335827 2.71874 26.3455 2.76558 4.99294 42.7199 12.0958 1.75732 6.2656 4.06233 117.054 -4.38511 -0.0527429 -5.08653 13.6788 -8.09805 11.3517 -0.0824644 33.7529 -3.72312 -14.8055 -4.59442 0.900817 7.95139e-016 -3.18055e-015 -6.36111e-015 
-5.19276 95.4947 76.0278 4.83408 4.8453 107.47 -22.9651 -0.693635 -15.1147 0.0659155 42.3137 2.52524 18.7666 -19.8376 1.37512 1.98785e-016 9.19379e-016 7.95139e-016 1.036 6.16006 2.52571 -6.02866 14.5767 3.85413 -9.1083 -19.3423 53.2885 -21.3463 1.69296 -2.59493 -34.5056 25.3163 -5.00632 -0.948838 -0.519634 -30.4722 13.8079 -0.365865 2.42315 27.199 2.80286 4.89458 36.1578 5.98401 8.15188 6.71283 3.57132 112.034 -6.1474 -0.00460843 -6.20302 14.4014 -12.6962 11.4622 -0.353223 42.5074 -5.56137 -13.8931 -14.5436 -0.304502 7.95139e-016 -3.97569e-016 6.36111e-015 
-5.86648 93.8149 75.2261 4.63094 4.37136 109.157 -23.8588 -0.974344 -16.5957 0.286319 44.3322 3.92875 19.7212 -23.2643 2.06659 6.34499e-032 2.28602e-015 -1.59028e-015 0.761694 6.00373 2.21899 -4.40108 16.7957 3.09484 -10.1367 -23.1442 52.6646 -22.793 1.78115 -2.61166 -31.638 21.874 -10.1995 -0.92611 -0.555262 -27.9254 18.5595 -0.237588 3.98372 28.4219 2.92503 4.95807 33.4021 1.87201 12.7986 2.35198 1.21971 105.629 -12.9362 0.315834 -8.69778 14.7678 -16.0249 11.1388 -0.447482 47.3335 -5.96634 -12.8008 -18.0678 -0.662156 3.97569e-016 -7.95139e-016 9.54166e-015 
-5.86013 95.0368 74.6418 4.3741 3.81093 108.442 -23.735 -1.97039 -16.3504 0.336984 44.0028 4.23697 20.6194 -19.1444 1.37433 3.97569e-016 3.62782e-015 -1.59028e-015 1.47126 5.84071 2.98703 -4.68829 17.1543 3.91815 -11.7369 -24.0625 52.3143 -22.9834 1.81193 -2.67893 -35.0367 20.1899 -10.5999 -2.5537 -3.58859 -27.1055 27.1773 0.0998585 5.9455 29.0313 3.04799 5.16401 37.2806 2.06194 11.2805 -0.151692 0.389633 102.725 -21.0355 0.87707 -10.5605 14.7623 -14.884 11.7575 -0.409174 44.5539 -5.79354 -12.9022 -15.8082 -0.416044 2.20695e-032 -3.97569e-016 3.18055e-015 
-5.44237 98.3231 74.3658 3.86539 3.05396 107.369 -22.5737 -3.1072 -15.8478 0.110417 41.3085 2.71085 18.5506 -8.35538 -0.521435 -7.95139e-016 3.62782e-015 7.95139e-016 2.44021 5.62219 3.51101 -5.1504 15.9276 4.63346 -13.0394 -23.0317 53.0137 -22.7153 1.75418 -2.5343 -39.1503 21.5847 -7.50436 -3.62506 -5.01022 -28.5977 26.4341 -0.16256 4.756 29.1837 3.10298 5.28246 42.9232 5.63746 6.31649 2.08053 1.05101 103.441 -21.8393 0.788598 -9.82016 14.4688 -11.6466 12.5331 -0.343303 37.0844 -5.64083 -13.7641 -9.19588 0.324747 -7.95139e-016 3.97569e-016 6.36111e-015 
-5.11343 101.701 74.5146 3.15651 2.51994 107.703 -21.4023 -3.13682 -16.5798 0.117708 37.1445 2.76082 14.698 0.546482 -1.53981 -3.47873e-016 -6.56611e-015 7.95139e-016 2.26083 5.4847 3.08315 -4.48009 14.2703 4.03676 -13.0954 -21.52 54.1874 -23.171 1.73103 -2.36777 -41.5293 20.9236 -2.9106 0.026219 0.982581 -31.0937 17.0557 -0.512905 1.96357 29.6825 3.18379 5.38724 45.4999 10.6034 1.80801 2.23204 1.13991 104.488 -14.8953 0.299638 -8.12185 14.1363 -9.65303 12.3227 -0.344177 29.7359 -5.82175 -15.1224 0.600187 1.58782 -1.59028e-015 2.38542e-015 -0 
-4.9439 103.752 74.7888 2.75983 2.20307 108.264 -20.5137 -2.51544 -17.5846 0.323806 33.7997 4.18601 12.5269 1.64819 -1.43048 7.95139e-016 2.93207e-015 -7.95139e-016 2.61319 5.40847 2.64528 -4.64582 13.2274 3.72651 -12.0129 -19.9907 54.1098 -23.4788 1.7702 -2.44155 -42.7231 18.4649 0.37133 4.62586 7.12984 -33.8681 12.0629 -0.525201 0.355584 29.9965 3.24238 5.47308 46.3226 14.6851 -1.58484 -1.77912 -0.128566 105.489 -7.76737 -0.076597 -4.76524 13.7208 -8.78034 11.2319 -0.122536 25.0794 -4.25882 -14.4805 7.55461 2.34169 0 0 -0 
-5.00501 104.139 75.0942 2.85341 1.78485 108.056 -19.8539 -2.66709 -17.3939 0.560005 32.763 5.95172 13.9042 0.903358 -1.50523 -1.98785e-016 -3.4632e-015 -0 4.10475 5.57445 2.76352 -5.9401 13.2796 4.3347 -11.3066 -19.2612 53.0636 -22.8547 1.76993 -2.56131 -43.5787 17.9807 0.640752 4.62985 6.74721 -35.5047 13.6927 -0.500104 1.17234 29.2059 3.13375 5.36313 46.7253 17.3176 -3.15968 -4.59527 -1.15414 106.61 -5.21081 -0.151183 -2.54768 13.6289 -8.78283 10.2077 0.269463 25.1561 -1.17784 -11.8843 8.04219 1.96794 1.59028e-015 2.38542e-015 1.27222e-014 
-5.26232 102.877 75.6221 3.21325 1.69769 107.857 -19.9099 -3.25696 -16.567 0.83728 34.0762 7.93272 16.9171 0.776364 -1.81466 3.20085e-033 -7.38066e-015 2.48481e-017 4.17725 6.60886 2.97457 -5.84195 13.2966 4.53963 -11.5816 -19.0608 52.3329 -22.144 1.7423 -2.6071 -43.9391 18.1329 -0.38102 2.56048 3.93736 -36.5274 16.5302 -0.448527 2.31958 27.9071 2.96222 5.19136 45.7326 18.211 -2.37757 -4.0643 -0.988813 106.864 -5.78564 -0.144787 -2.90787 14.1515 -9.52064 10.1627 0.362955 29.0383 -0.428649 -12.261 3.88726 1.60945 -8.82781e-032 1.59028e-015 3.18055e-015 
